HIERARCHY
ROOT hip
{
  OFFSET 0 0 0
  CHANNELS 6 Xposition Yposition Zposition Zrotation Yrotation Xrotation
  JOINT abdomen
  {
    OFFSET 0 20.6881 -0.73152
    CHANNELS 3 Zrotation Xrotation Yrotation
    JOINT chest
    {
      OFFSET 0 11.7043 -0.48768
      CHANNELS 3 Zrotation Xrotation Yrotation
      JOINT neck
      {
        OFFSET 0 22.1894 -2.19456
        CHANNELS 3 Zrotation Xrotation Yrotation
        JOINT head
        {
          OFFSET -0.24384 7.07133 1.2192
          CHANNELS 3 Zrotation Xrotation Yrotation
          JOINT leftEye
          {
            OFFSET 4.14528 8.04674 8.04672
            CHANNELS 3 Zrotation Xrotation Yrotation
            End Site
            {
              OFFSET 1 0 0
            }
          }
          JOINT rightEye
          {
            OFFSET -3.6576 8.04674 8.04672
            CHANNELS 3 Zrotation Xrotation Yrotation
            End Site
            {
              OFFSET 1 0 0
            }
          }
        }
      }
      JOINT rCollar
      {
        OFFSET -2.68224 19.2634 -4.8768
        CHANNELS 3 Zrotation Xrotation Yrotation
        JOINT rShldr
        {
          OFFSET -8.77824 -1.95073 1.46304
          CHANNELS 3 Zrotation Xrotation Yrotation
          JOINT rForeArm
          {
            OFFSET -28.1742 -1.7115 0.48768
            CHANNELS 3 Zrotation Xrotation Yrotation
            JOINT rHand
            {
              OFFSET -22.5879 0.773209 7.07136
              CHANNELS 3 Zrotation Xrotation Yrotation
              JOINT rThumb1
              {
                OFFSET -1.2192 -0.487915 3.41376
                CHANNELS 3 Zrotation Xrotation Yrotation
                JOINT rThumb2
                {
                  OFFSET -3.37035 -0.52449 3.41376
                  CHANNELS 3 Zrotation Xrotation Yrotation
                  End Site
                  {
                    OFFSET -1.78271 -1.18214 1.43049
                  }
                }
              }
              JOINT rIndex1
              {
                OFFSET -7.75947 0.938293 5.60832
                CHANNELS 3 Zrotation Xrotation Yrotation
                JOINT rIndex2
                {
                  OFFSET -2.54057 -0.884171 1.56538
                  CHANNELS 3 Zrotation Xrotation Yrotation
                  End Site
                  {
                    OFFSET -1.62519 -0.234802 1.16502
                  }
                }
              }
              JOINT rMid1
              {
                OFFSET -8.24714 1.18213 3.41376
                CHANNELS 3 Zrotation Xrotation Yrotation
                JOINT rMid2
                {
                  OFFSET -3.10165 -0.590103 1.0647
                  CHANNELS 3 Zrotation Xrotation Yrotation
                  End Site
                  {
                    OFFSET -2.48547 -0.328903 0.83742
                  }
                }
              }
              JOINT rRing1
              {
                OFFSET -8.82822 0.546677 1.51678
                CHANNELS 3 Zrotation Xrotation Yrotation
                JOINT rRing2
                {
                  OFFSET -2.60934 -0.819778 -0.0198488
                  CHANNELS 3 Zrotation Xrotation Yrotation
                  End Site
                  {
                    OFFSET -2.33842 -0.294052 0.168128
                  }
                }
              }
              JOINT rPinky1
              {
                OFFSET -8.27202 -0.0477905 -0.4584
                CHANNELS 3 Zrotation Xrotation Yrotation
                JOINT rPinky2
                {
                  OFFSET -1.82734 -0.647385 -0.700984
                  CHANNELS 3 Zrotation Xrotation Yrotation
                  End Site
                  {
                    OFFSET -1.69225 -0.51767 -0.607171
                  }
                }
              }
            }
          }
        }
      }
      JOINT lCollar
      {
        OFFSET 2.68224 19.2634 -4.8768
        CHANNELS 3 Zrotation Xrotation Yrotation
        JOINT lShldr
        {
          OFFSET 8.77824 -1.95073 1.46304
          CHANNELS 3 Zrotation Xrotation Yrotation
          JOINT lForeArm
          {
            OFFSET 28.1742 -1.7115 0.48768
            CHANNELS 3 Zrotation Xrotation Yrotation
            JOINT lHand
            {
              OFFSET 22.5879 0.773209 7.07136
              CHANNELS 3 Zrotation Xrotation Yrotation
              JOINT lThumb1
              {
                OFFSET 1.2192 -0.487915 3.41376
                CHANNELS 3 Zrotation Xrotation Yrotation
                JOINT lThumb2
                {
                  OFFSET 3.37035 -0.52449 3.41376
                  CHANNELS 3 Zrotation Xrotation Yrotation
                  End Site
                  {
                    OFFSET 1.78271 -1.18214 1.43049
                  }
                }
              }
              JOINT lIndex1
              {
                OFFSET 7.75947 0.938293 5.60832
                CHANNELS 3 Zrotation Xrotation Yrotation
                JOINT lIndex2
                {
                  OFFSET 2.54057 -0.884171 1.56538
                  CHANNELS 3 Zrotation Xrotation Yrotation
                  End Site
                  {
                    OFFSET 1.62519 -0.234802 1.16502
                  }
                }
              }
              JOINT lMid1
              {
                OFFSET 8.24714 1.18213 3.41376
                CHANNELS 3 Zrotation Xrotation Yrotation
                JOINT lMid2
                {
                  OFFSET 3.10165 -0.590103 1.0647
                  CHANNELS 3 Zrotation Xrotation Yrotation
                  End Site
                  {
                    OFFSET 2.48547 -0.328903 0.83742
                  }
                }
              }
              JOINT lRing1
              {
                OFFSET 8.82822 0.546677 1.51678
                CHANNELS 3 Zrotation Xrotation Yrotation
                JOINT lRing2
                {
                  OFFSET 2.60934 -0.819778 -0.0198488
                  CHANNELS 3 Zrotation Xrotation Yrotation
                  End Site
                  {
                    OFFSET 2.33842 -0.294052 0.168128
                  }
                }
              }
              JOINT lPinky1
              {
                OFFSET 8.27202 -0.0477905 -0.4584
                CHANNELS 3 Zrotation Xrotation Yrotation
                JOINT lPinky2
                {
                  OFFSET 1.82734 -0.647385 -0.700984
                  CHANNELS 3 Zrotation Xrotation Yrotation
                  End Site
                  {
                    OFFSET 1.69225 -0.51767 -0.607171
                  }
                }
              }
            }
          }
        }
      }
    }
  }
  JOINT rButtock
  {
    OFFSET -8.77824 4.35084 1.2192
    CHANNELS 3 Zrotation Xrotation Yrotation
    JOINT rThigh
    {
      OFFSET 0 -1.70687 -2.19456
      CHANNELS 3 Zrotation Xrotation Yrotation
      JOINT rShin
      {
        OFFSET 0 -36.8199 0.73152
        CHANNELS 3 Zrotation Xrotation Yrotation
        JOINT rFoot
        {
          OFFSET 0.73152 -45.1104 -5.12064
          CHANNELS 3 Zrotation Xrotation Yrotation
          End Site
          {
            OFFSET -1.1221 -3.69964 12.103
          }
        }
      }
    }
  }
  JOINT lButtock
  {
    OFFSET 8.77824 4.35084 1.2192
    CHANNELS 3 Zrotation Xrotation Yrotation
    JOINT lThigh
    {
      OFFSET 0 -1.70687 -2.19456
      CHANNELS 3 Zrotation Xrotation Yrotation
      JOINT lShin
      {
        OFFSET 0 -36.8199 0.73152
        CHANNELS 3 Zrotation Xrotation Yrotation
        JOINT lFoot
        {
          OFFSET -0.73152 -45.1104 -5.12064
          CHANNELS 3 Zrotation Xrotation Yrotation
          End Site
          {
            OFFSET 1.1221 -3.69964 12.103
          }
        }
      }
    }
  }
}
MOTION
Frames:	6
Frame Time:	0.03333
-12.6299 51.0561 159.092 -11.1024 -54.457800000000006 10.6429 -0.8078139999999999 11.3041 15.2494 -2.04152 -12.2721 3.93717 -1.33705 13.8696 9.009990000000002 9.22207 -23.6312 19.7929 -0.0 0.0 0.0 -0.0 0.0 0.0 -1.2486699999999999e-13 -2.90223e-13 -3.33859e-13 42.6039 80.5439 24.7597 -26.280000000000005 -45.71040000000001 94.9347 -32.506 -77.6274 -39.8423 -8.96181e-10 1.5103299999999999e-09 1.43176e-09 -1.61952e-09 3.56802e-09 2.37293e-09 -8.961830000000002e-10 1.51034e-09 1.43175e-09 7.730909999999999 5.47488 0.417314 -8.96185e-10 1.51035e-09 1.43175e-09 2.90554 0.965183 0.102902 -8.96176e-10 1.51034e-09 1.43175e-09 10.278600000000003 0.731801 0.0259123 -8.961830000000002e-10 1.51034e-09 1.43176e-09 2.22167 -0.733487 -0.20892000000000002 -1.2481499999999998e-13 -2.9022700000000005e-13 -3.3405800000000005e-13 -60.80619999999999 2.87074 -38.5857 28.1669 -31.722 -70.0064 0.801988 24.5625 -3.68283 -1.03104e-09 5.59946e-10 1.2570600000000002e-09 -1.7597500000000005e-09 9.087770000000001e-10 2.19192e-09 -1.03105e-09 5.59945e-10 1.25707e-09 -7.730909999999999 5.47488 -0.417314 -1.03104e-09 5.59948e-10 1.25705e-09 -2.90554 0.965183 -0.102902 -1.03105e-09 5.599499999999999e-10 1.2570600000000002e-09 -10.278600000000003 0.731801 -0.0259123 -1.03104e-09 5.599540000000002e-10 1.25705e-09 -2.22167 -0.733487 0.20892000000000002 -2.03217e-16 0.0 -3.88251e-19 -29.6405 -27.873199999999997 -32.584300000000006 -4.777690000000001 82.2249 7.67174 -11.627300000000002 -26.5767 -24.4553 2.03217e-16 0.0 3.88251e-19 69.90020000000001 -43.3531 67.23540000000001 3.49354 75.5133 -3.25717 -0.114907 0.311954 -1.66663
-12.5928 51.0212 159.101 -11.0919 -54.5271 10.613500000000002 -0.830233 11.352199999999998 15.2283 -2.02974 -12.2733 3.930920000000001 -1.3443299999999998 13.8043 9.033969999999998 9.2777 -23.5456 19.8467 -0.0 0.0 0.0 -0.0 0.0 0.0 -7.28163e-14 -1.95225e-13 5.10016e-13 42.82320000000001 80.5297 24.548 -26.2759 -45.718900000000005 94.9529 -32.363600000000005 -77.5907 -39.6966 -4.33957e-10 1.11481e-08 -1.76634e-09 -6.33815e-10 1.82375e-08 -3.01716e-09 -4.33961e-10 1.11481e-08 -1.7663499999999998e-09 7.730909999999999 5.47488 0.417314 -4.33961e-10 1.11481e-08 -1.7663499999999998e-09 2.90554 0.965183 0.102902 -4.33953e-10 1.11481e-08 -1.7663499999999998e-09 10.278600000000003 0.731801 0.0259123 -4.33958e-10 1.11481e-08 -1.76634e-09 2.22167 -0.733487 -0.20892000000000002 -7.27454e-14 -1.95237e-13 5.09811e-13 -60.79080000000001 2.87278 -38.56000000000001 28.1642 -31.7018 -69.97360000000002 0.801017 24.5487 -3.6805 9.78832e-10 7.39529e-10 -2.67571e-09 1.64539e-09 1.3698300000000002e-09 -4.63566e-09 9.78832e-10 7.395260000000001e-10 -2.67569e-09 -7.730909999999999 5.47488 -0.417314 9.78835e-10 7.395340000000001e-10 -2.67571e-09 -2.90554 0.965183 -0.102902 9.78826e-10 7.395340000000001e-10 -2.67571e-09 -10.278600000000003 0.731801 -0.0259123 9.78834e-10 7.39535e-10 -2.67572e-09 -2.22167 -0.733487 0.20892000000000002 -2.03217e-16 0.0 -3.88251e-19 -29.6897 -27.9789 -32.5062 -4.85987 82.3343 7.75487 -11.605 -26.5665 -24.4266 2.03217e-16 0.0 3.88251e-19 69.872 -43.507 67.10719999999999 3.5265 75.6354 -3.30037 -0.0982885 0.40786 -1.36818
-12.5432 50.9846 159.105 -11.0673 -54.5897 10.5699 -0.869871 11.416399999999998 15.193399999999999 -2.0087400000000004 -12.2794 3.92119 -1.34946 13.7364 9.060119999999998 9.32723 -23.4641 19.9041 -0.0 0.0 0.0 -0.0 0.0 0.0 -3.41803e-14 -1.36357e-13 1.3296199999999997e-12 43.0602 80.5099 24.3277 -26.2721 -45.72689999999999 94.9696 -32.1396 -77.5323 -39.4671 -1.74114e-10 2.18779e-08 -4.832769999999999e-09 -2.616e-12 3.490210000000001e-08 -8.19589e-09 -1.74118e-10 2.18779e-08 -4.832769999999999e-09 7.730909999999999 5.47488 0.417314 -1.74116e-10 2.18779e-08 -4.832769999999999e-09 2.90554 0.965183 0.102902 -1.7411e-10 2.18779e-08 -4.832769999999999e-09 10.278600000000003 0.731801 0.0259123 -1.74114e-10 2.18779e-08 -4.832760000000001e-09 2.22167 -0.733487 -0.20892000000000002 -3.410439999999999e-14 -1.36375e-13 1.32942e-12 -60.7711 2.8668300000000007 -38.51650000000001 28.1618 -31.6832 -69.9435 0.8003590000000002 24.539500000000004 -3.6789199999999997 3.09485e-09 8.03783e-10 -6.66178e-09 5.23289e-09 1.63688e-09 -1.1558e-08 3.09485e-09 8.037779999999999e-10 -6.661749999999999e-09 -7.730909999999999 5.47488 -0.417314 3.09485e-09 8.03789e-10 -6.661769999999999e-09 -2.90554 0.965183 -0.102902 3.09484e-09 8.03788e-10 -6.66178e-09 -10.278600000000003 0.731801 -0.0259123 3.09485e-09 8.037869999999999e-10 -6.66178e-09 -2.22167 -0.733487 0.20892000000000002 -2.03217e-16 0.0 -3.88251e-19 -29.7451 -28.1171 -32.4206 -4.96605 82.4724 7.86304 -11.5881 -26.538 -24.4179 2.03217e-16 0.0 3.88251e-19 69.7937 -43.6996 66.91509999999998 3.55083 75.729 -3.3368099999999994 -0.0831057 0.517627 -1.0433
-12.4774 50.95080000000001 159.104 -10.9888 -54.6542 10.484300000000001 -0.9572660000000001 11.4964 15.141699999999997 -1.96933 -12.2981 3.90659 -1.35994 13.6949 9.08695 9.36859 -23.4241 19.9645 -0.0 0.0 0.0 -0.0 0.0 0.0 -1.12254e-13 -2.1739e-13 1.08129e-12 43.2322 80.5097 24.186 -26.270400000000002 -45.7306 94.97720000000001 -31.976100000000002 -77.48930000000001 -39.2997 -1.16921e-10 1.96702e-08 -4.40712e-09 7.22274e-11 3.12752e-08 -7.47085e-09 -1.1692299999999997e-10 1.96702e-08 -4.40713e-09 7.730909999999999 5.47488 0.417314 -1.1692e-10 1.96702e-08 -4.40712e-09 2.90554 0.965183 0.102902 -1.16915e-10 1.96702e-08 -4.40712e-09 10.278600000000003 0.731801 0.0259123 -1.1692600000000002e-10 1.96702e-08 -4.40711e-09 2.22167 -0.733487 -0.20892000000000002 -1.12221e-13 -2.17402e-13 1.08109e-12 -60.7441 2.84873 -38.4468 28.159 -31.663000000000004 -69.91130000000001 0.7978020000000001 24.5032 -3.672750000000001 3.01869e-09 7.00715e-10 -6.55324e-09 5.1020200000000005e-09 1.45998e-09 -1.1370600000000001e-08 3.0187e-09 7.00711e-10 -6.55322e-09 -7.730909999999999 5.47488 -0.417314 3.0187e-09 7.00719e-10 -6.55323e-09 -2.90554 0.965183 -0.102902 3.01869e-09 7.007169999999999e-10 -6.55324e-09 -10.278600000000003 0.731801 -0.0259123 3.0187e-09 7.007169999999999e-10 -6.55325e-09 -2.22167 -0.733487 0.20892000000000002 -2.03217e-16 0.0 -3.88251e-19 -29.8273 -28.306 -32.3223 -5.10661 82.6493 8.00822 -11.590699999999998 -26.4794 -24.4597 2.03217e-16 0.0 3.88251e-19 69.6219 -43.934 66.6382 3.5638300000000003 75.7806 -3.3646 -0.0705727 0.639475 -0.68922
-12.3958 50.9246 159.084 -10.841300000000002 -54.7209 10.3434 -1.08163 11.5962 15.094399999999998 -1.9252900000000002 -12.327700000000002 3.8924399999999997 -1.37406 13.676399999999997 9.10506 9.393280000000003 -23.4314 20.0084 -0.0 0.0 0.0 -0.0 0.0 0.0 -1.7690500000000002e-13 -2.91019e-13 4.26244e-13 43.4795 80.5031 23.981300000000005 -26.2721 -45.72689999999999 94.9696 -31.8573 -77.4577 -39.178 -1.1935200000000002e-10 1.13936e-08 -2.4259e-09 -5.0541399999999995e-11 1.8133e-08 -4.1145e-09 -1.1935099999999996e-10 1.13936e-08 -2.42591e-09 7.730909999999999 5.47488 0.417314 -1.19348e-10 1.13936e-08 -2.42591e-09 2.90554 0.965183 0.102902 -1.19345e-10 1.13936e-08 -2.4259e-09 10.278600000000003 0.731801 0.0259123 -1.19361e-10 1.13936e-08 -2.4259e-09 2.22167 -0.733487 -0.20892000000000002 -1.76943e-13 -2.91023e-13 4.26045e-13 -60.7069 2.82871 -38.3744 28.1542 -31.627400000000005 -69.8541 0.796461 24.4842 -3.66952 1.91882e-09 3.5902299999999994e-10 -4.22288e-09 3.2408699999999998e-09 7.861790000000001e-10 -7.3279800000000006e-09 1.91882e-09 3.59021e-10 -4.22286e-09 -7.730909999999999 5.47488 -0.417314 1.91882e-09 3.5902599999999997e-10 -4.22288e-09 -2.90554 0.965183 -0.102902 1.91882e-09 3.5902299999999994e-10 -4.22288e-09 -10.278600000000003 0.731801 -0.0259123 1.91882e-09 3.59024e-10 -4.22289e-09 -2.22167 -0.733487 0.20892000000000002 -2.03217e-16 0.0 -3.88251e-19 -29.912200000000002 -28.5417 -32.2 -5.28866 82.867 8.19654 -11.6024 -26.3674 -24.55 2.03217e-16 0.0 3.88251e-19 69.38 -44.2041 66.2989 3.56271 75.7914 -3.3790799999999996 -0.0598195 0.803162 -0.319237
-12.3025 50.914 159.029 -10.6504 -54.7809 10.1661 -1.24241 11.7187 15.0809 -1.89097 -12.3721 3.88596 -1.39139 13.6975 9.10026 9.38704 -23.515999999999995 20.0071 -0.0 0.0 0.0 -0.0 0.0 0.0 -7.85592e-14 -1.84896e-13 -4.87749e-13 43.9768 80.46549999999999 23.5433 -26.280000000000005 -45.71060000000001 94.9353 -31.8419 -77.45359999999998 -39.1622 4.012469999999999e-11 -4.719350000000001e-09 1.06838e-09 6.01717e-12 -7.51001e-09 1.81338e-09 4.01262e-11 -4.71934e-09 1.06838e-09 7.730909999999999 5.47488 0.417314 4.01266e-11 -4.719350000000001e-09 1.06838e-09 2.90554 0.965183 0.102902 4.01303e-11 -4.71934e-09 1.06838e-09 10.278600000000003 0.731801 0.0259123 4.0120500000000004e-11 -4.719350000000001e-09 1.06839e-09 2.22167 -0.733487 -0.20892000000000002 -7.87188e-14 -1.84895e-13 -4.879789999999999e-13 -60.65749999999999 2.82082 -38.3253 28.1447 -31.5587 -69.74380000000001 0.801904 24.5612 -3.6826199999999996 -3.7547800000000007e-10 -5.40447e-10 1.27666e-09 -6.27632e-10 -9.74046e-10 2.2094799999999997e-09 -3.75483e-10 -5.40449e-10 1.2766799999999998e-09 -7.730909999999999 5.47488 -0.417314 -3.75481e-10 -5.40441e-10 1.2766700000000003e-09 -2.90554 0.965183 -0.102902 -3.75481e-10 -5.40448e-10 1.27666e-09 -10.278600000000003 0.731801 -0.0259123 -3.7546800000000003e-10 -5.40444e-10 1.27665e-09 -2.22167 -0.733487 0.20892000000000002 -2.03217e-16 0.0 -3.88251e-19 -29.9802 -28.832700000000003 -32.04370000000001 -5.521039999999999 83.1282 8.43755 -11.633700000000001 -26.1811 -24.719599999999996 2.03217e-16 0.0 3.88251e-19 69.0908 -44.4975 65.93099999999998 3.54609 75.76940000000002 -3.37737 -0.049855 1.04208 0.0492827
